<svg width="24" height="25" viewBox="0 0 24 25" fill="inherit" xmlns="http://www.w3.org/2000/svg">
<path d="M2 12.624C2 7.03269 6.47713 2.5 11.9999 2.5C17.5228 2.5 21.9999 7.03269 21.9999 12.624L21.9999 17.8675C22.0002 18.6844 22.0004 19.2446 21.8568 19.7364C21.576 20.6982 20.9046 21.4937 20.01 21.9245C19.5525 22.1449 19.0059 22.232 18.2088 22.3591L18.0789 22.3799C17.7954 22.4252 17.5532 22.4639 17.3522 22.4839C17.1431 22.5047 16.9299 22.5111 16.7118 22.4676C15.9942 22.3245 15.4024 21.8126 15.1508 21.1172C15.0744 20.9059 15.0474 20.6916 15.035 20.4793C15.0232 20.2753 15.0232 20.027 15.0232 19.7365L15.0231 15.5641C15.0226 15.1386 15.0222 14.7725 15.1195 14.459C15.3422 13.7416 15.9238 13.1975 16.6477 13.0292C16.9641 12.9556 17.3246 12.9849 17.7435 13.0189L17.8367 13.0264L17.9465 13.0352C18.7302 13.0975 19.2664 13.1402 19.7216 13.3106C20.0415 13.4304 20.3381 13.5953 20.6046 13.7976V12.624C20.6046 7.81288 16.7521 3.91266 11.9999 3.91266C7.24776 3.91266 3.39534 7.81288 3.39534 12.624V13.7976C3.66176 13.5953 3.95843 13.4304 4.27829 13.3106C4.73345 13.1402 5.26965 13.0975 6.05335 13.0352L6.16318 13.0264L6.25641 13.0189C6.67534 12.9849 7.03581 12.9556 7.35224 13.0292C8.07612 13.1975 8.65766 13.7416 8.88039 14.459C8.97774 14.7725 8.9773 15.1386 8.97678 15.5641L8.97671 19.7365C8.97671 20.027 8.97672 20.2753 8.96487 20.4793C8.95254 20.6916 8.9255 20.9059 8.84906 21.1172C8.59754 21.8126 8.00574 22.3245 7.28812 22.4676C7.07001 22.5111 6.85675 22.5047 6.64768 22.4839C6.44671 22.4639 6.20449 22.4252 5.92102 22.3799L5.79106 22.3591C4.99399 22.232 4.44737 22.1449 3.98991 21.9245C3.09534 21.4937 2.42388 20.6982 2.14308 19.7364C2.02467 19.3309 2.00404 18.8788 2.0006 18.2747L2 18.0803V12.624Z" fill="white"/>
<g opacity="0.5">
<path fill-rule="evenodd" clip-rule="evenodd" d="M12 6.25C12.4142 6.25 12.75 6.58579 12.75 7L12.75 12C12.75 12.4142 12.4142 12.75 12 12.75C11.5858 12.75 11.25 12.4142 11.25 12L11.25 7C11.25 6.58579 11.5858 6.25 12 6.25Z" fill="white"/>
<path fill-rule="evenodd" clip-rule="evenodd" d="M15 7.75C15.4142 7.75 15.75 8.08579 15.75 8.5V10.5C15.75 10.9142 15.4142 11.25 15 11.25C14.5858 11.25 14.25 10.9142 14.25 10.5V8.5C14.25 8.08579 14.5858 7.75 15 7.75Z" fill="white"/>
<path fill-rule="evenodd" clip-rule="evenodd" d="M9 7.75C9.41421 7.75 9.75 8.08579 9.75 8.5L9.75 10.5C9.75 10.9142 9.41421 11.25 9 11.25C8.58579 11.25 8.25 10.9142 8.25 10.5L8.25 8.5C8.25 8.08579 8.58579 7.75 9 7.75Z" fill="white"/>
</g>
</svg>
