<svg width="24" height="25" viewBox="0 0 24 25" fill="none" xmlns="http://www.w3.org/2000/svg">
<path d="M15.5 14.3929H14.71L14.43 14.1229C15.41 12.9829 16 11.5029 16 9.89294C16 6.30294 13.09 3.39294 9.5 3.39294C5.91 3.39294 3 6.30294 3 9.89294C3 13.4829 5.91 16.3929 9.5 16.3929C11.11 16.3929 12.59 15.8029 13.73 14.8229L14 15.1029V15.8929L19 20.8829L20.49 19.3929L15.5 14.3929ZM9.5 14.3929C7.01 14.3929 5 12.3829 5 9.89294C5 7.40294 7.01 5.39294 9.5 5.39294C11.99 5.39294 14 7.40294 14 9.89294C14 12.3829 11.99 14.3929 9.5 14.3929Z" fill="inherit"/>
</svg>
