<svg width="24" height="25" viewBox="0 0 24 25" fill="none" xmlns="http://www.w3.org/2000/svg">
<g clip-path="url(#clip0_87_1159)">
<path d="M12 0.5C5.383 0.5 0 5.883 0 12.5C0 19.117 5.383 24.5 12 24.5C18.617 24.5 24 19.117 24 12.5C24 5.883 18.617 0.5 12 0.5ZM12 22.5C6.486 22.5 2 18.014 2 12.5C2 6.986 6.486 2.5 12 2.5C17.514 2.5 22 6.986 22 12.5C22 18.014 17.514 22.5 12 22.5ZM11 9.5V15.5C11 16.052 10.552 16.5 10 16.5C9.448 16.5 9 16.052 9 15.5V9.5C9 8.948 9.448 8.5 10 8.5C10.552 8.5 11 8.948 11 9.5ZM15 9.5V15.5C15 16.052 14.552 16.5 14 16.5C13.448 16.5 13 16.052 13 15.5V9.5C13 8.948 13.448 8.5 14 8.5C14.552 8.5 15 8.948 15 9.5Z" fill="inherit"/>
</g>
<defs>
<clipPath id="clip0_87_1159">
<rect width="24" height="24" fill="white" transform="translate(0 0.5)"/>
</clipPath>
</defs>
</svg>
