<svg width="50" height="50" viewBox="0 0 50 50" fill="none" xmlns="http://www.w3.org/2000/svg">
<path d="M2.08333 43.75H10.4167V18.75H2.08333V43.75ZM47.9167 20.8333C47.9167 18.5417 46.0417 16.6667 43.75 16.6667H30.6042L32.5833 7.14584L32.6458 6.47917C32.6458 5.625 32.2917 4.83334 31.7292 4.27084L29.5208 2.08334L15.8125 15.8125C15.0417 16.5625 14.5833 17.6042 14.5833 18.75V39.5833C14.5833 41.875 16.4583 43.75 18.75 43.75H37.5C39.2292 43.75 40.7083 42.7083 41.3333 41.2083L47.625 26.5208C47.8125 26.0417 47.9167 25.5417 47.9167 25V20.8333Z" fill="inherit"/>
</svg>
